<?xml version="1.0" standalone="no"?>
<!DOCTYPE svg PUBLIC "-//W3C//DTD SVG 20010904//EN"
 "http://www.w3.org/TR/2001/REC-SVG-20010904/DTD/svg10.dtd">
<svg version="1.0" xmlns="http://www.w3.org/2000/svg"
 width="265.000000pt" height="72.000000pt" viewBox="0 0 265.000000 72.000000"
 preserveAspectRatio="xMidYMid meet">
<metadata>
Created by potrace 1.10, written by Peter Selinger 2001-2011
</metadata>
<g transform="translate(0.000000,72.000000) scale(0.100000,-0.100000)"
fill="#ffffff" stroke="none">
<path d="M475 580 c-18 -20 -18 -22 -2 -49 23 -39 25 -267 2 -311 -14 -27 -14
-30 11 -49 35 -28 102 -28 136 -1 25 19 26 19 43 0 14 -15 31 -20 70 -20 28 0
56 5 63 12 9 9 18 9 37 0 35 -16 106 -15 131 2 17 12 22 12 39 0 29 -21 98
-18 129 7 l26 20 26 -20 c33 -26 75 -27 105 -2 22 18 24 18 53 0 34 -20 96
-25 126 -9 12 6 28 6 49 -1 63 -22 120 26 87 73 -10 15 -16 44 -16 85 0 34 -5
72 -11 85 -28 60 -122 85 -204 53 -66 -25 -83 -67 -44 -106 l21 -21 -26 -25
c-14 -13 -26 -33 -26 -43 0 -34 -32 -17 -65 33 -18 28 -18 28 12 60 41 44 45
61 22 91 -15 19 -30 26 -53 26 -37 0 -59 -20 -71 -65 -7 -24 -10 -12 -19 66
-6 53 -17 103 -25 112 -20 25 -93 23 -116 -3 -18 -19 -18 -22 -2 -56 13 -26
17 -63 17 -154 0 -132 -5 -157 -26 -139 -10 8 -14 37 -14 98 0 63 -4 93 -16
109 -15 21 -15 25 0 41 9 10 16 30 16 44 0 62 -84 91 -128 44 -26 -28 -27 -45
-6 -75 15 -21 15 -25 -2 -43 -15 -17 -16 -24 -5 -57 14 -43 11 -168 -4 -165
-5 2 -13 44 -16 93 -5 80 -9 94 -31 117 -28 28 -92 44 -125 32 -19 -7 -21 -3
-27 45 -5 34 -14 58 -27 69 -28 24 -91 22 -114 -3z m99 -16 c12 -11 16 -37 16
-97 1 -61 3 -77 11 -64 16 28 67 49 100 42 52 -12 69 -47 69 -140 0 -64 3 -84
15 -89 26 -10 16 -33 -17 -40 -68 -13 -127 17 -82 42 24 14 16 149 -10 168
-26 18 -54 2 -72 -41 -19 -46 -19 -121 1 -129 29 -11 16 -34 -23 -41 -61 -10
-122 24 -76 42 15 6 16 22 10 157 -4 83 -12 156 -18 163 -29 36 42 61 76 27z
m506 6 c11 -7 16 -37 20 -130 l5 -120 38 35 c24 22 37 43 37 59 0 30 41 46 65
26 24 -20 18 -40 -25 -82 -46 -46 -45 -53 25 -117 49 -45 50 -55 9 -65 -35 -9
-64 11 -100 68 -16 25 -33 44 -39 43 -17 -6 -18 -59 -1 -69 28 -16 18 -36 -22
-43 -60 -10 -123 24 -77 41 13 5 14 27 9 158 -5 105 -11 156 -20 167 -26 30
36 54 76 29z m-158 -17 c34 -31 16 -73 -32 -73 -66 0 -67 88 -1 90 8 0 23 -7
33 -17z m616 -138 c19 -22 22 -37 22 -105 0 -69 3 -81 20 -90 27 -14 25 -24
-7 -39 -23 -10 -30 -9 -53 8 -25 18 -28 18 -44 3 -11 -11 -32 -17 -63 -16 -37
1 -51 6 -70 28 -29 34 -29 57 0 84 24 22 97 52 128 52 21 0 25 21 9 51 -15 27
-54 24 -74 -6 -19 -29 -60 -34 -70 -9 -4 10 1 25 10 36 41 45 153 47 192 3z
m-610 -80 c2 -85 6 -103 24 -122 20 -22 20 -23 2 -30 -53 -21 -154 4 -111 28
14 8 17 24 17 93 0 62 -4 87 -15 96 -31 26 -18 41 33 38 l47 -3 3 -100z m522
41 c0 -3 -4 -8 -10 -11 -5 -3 -10 -1 -10 4 0 6 5 11 10 11 6 0 10 -2 10 -4z
m-782 -74 c4 -62 -12 -99 -34 -81 -27 22 -10 146 19 137 7 -3 13 -26 15 -56z"/>
<path d="M1442 295 c-43 -19 -52 -43 -23 -67 28 -22 35 -22 55 -2 16 15 23 84
9 84 -5 -1 -23 -7 -41 -15z m10 -47 c-7 -7 -12 -8 -12 -2 0 14 12 26 19 19 2
-3 -1 -11 -7 -17z"/>
<path d="M1972 574 c-26 -18 -30 -75 -7 -94 13 -10 13 -15 3 -21 -7 -5 -20 -2
-29 7 -21 19 -59 15 -69 -6 -4 -8 -13 -27 -20 -42 -28 -60 -112 -56 -145 7
-26 48 -49 64 -72 49 -27 -17 -22 -84 8 -122 39 -48 99 -73 164 -67 66 7 67
-11 2 -41 -45 -20 -59 -52 -37 -80 29 -33 128 4 161 61 30 52 33 81 10 104
-18 18 -19 24 -9 41 7 11 16 20 20 20 21 0 24 -135 3 -166 -30 -46 14 -80 91
-70 60 8 75 8 142 0 40 -4 59 -2 78 10 22 15 27 15 46 1 23 -15 92 -20 122 -9
29 11 38 41 20 68 -8 14 -15 42 -14 63 5 98 1 114 -35 150 -33 33 -37 35 -87
29 -68 -8 -84 -8 -133 0 -33 5 -44 2 -60 -16 -16 -18 -17 -25 -7 -54 15 -40
16 -162 2 -171 -15 -9 -19 10 -23 108 -3 66 -9 92 -22 107 -18 20 -18 21 3 43
27 29 28 47 1 81 -24 30 -72 35 -107 10z m82 -17 c21 -16 18 -55 -5 -70 -23
-14 -67 0 -74 24 -4 13 0 27 11 40 20 22 43 24 68 6z m-384 -112 c0 -50 51
-95 110 -95 55 0 89 27 100 80 3 17 13 26 29 28 21 3 22 1 16 -30 -28 -134
-204 -163 -275 -46 -26 44 -26 78 0 78 11 0 20 -7 20 -15z m721 -24 c10 -13
18 -49 22 -106 4 -61 11 -93 23 -106 16 -17 15 -19 -12 -29 -52 -20 -142 9
-100 32 25 14 23 149 -3 172 -26 24 -54 8 -74 -41 -16 -42 -16 -108 2 -126 30
-30 -11 -53 -75 -41 -40 7 -53 23 -30 36 23 13 23 163 0 189 -22 25 -9 39 36
39 34 0 40 -3 46 -26 7 -26 7 -26 23 -7 9 11 25 26 36 32 27 16 87 6 106 -18z
m-331 0 c5 -11 10 -60 10 -110 0 -75 3 -92 18 -100 43 -25 -57 -50 -112 -28
-18 7 -18 8 0 28 15 17 18 34 15 97 -2 43 -9 85 -17 97 -18 28 -10 35 37 35
28 0 41 -5 49 -19z m250 -125 c0 -42 -5 -67 -14 -75 -18 -15 -26 5 -26 64 0
53 8 75 26 75 11 0 14 -16 14 -64z m-384 -8 c-12 -61 -53 -102 -114 -114 -27
-6 -32 -4 -32 14 0 14 9 21 29 25 36 8 68 40 76 78 5 20 13 29 27 29 18 0 20
-4 14 -32z"/>
<path d="M232 554 c-15 -6 -40 -26 -55 -43 -35 -42 -38 -115 -6 -155 21 -27
107 -76 132 -76 8 0 20 -7 27 -15 21 -26 -30 -18 -72 10 -44 30 -79 32 -101 7
-26 -29 -20 -57 18 -91 44 -38 69 -45 154 -39 75 6 114 25 137 69 34 67 3 136
-79 174 -28 14 -59 25 -68 25 -8 0 -24 7 -35 15 -16 13 -17 16 -4 25 18 12 47
4 73 -21 31 -28 55 -32 82 -15 31 20 34 75 7 99 -48 44 -146 58 -210 31z m163
-28 c22 -10 37 -24 41 -40 13 -52 -20 -61 -74 -19 -53 40 -122 31 -122 -18 0
-24 34 -46 100 -66 69 -20 110 -59 110 -106 0 -74 -69 -113 -176 -101 -71 9
-127 50 -108 81 17 28 37 26 79 -7 45 -36 108 -42 124 -12 15 28 -10 56 -61
71 -63 19 -116 48 -128 70 -26 49 1 124 53 146 42 19 119 19 162 1z"/>
</g>
</svg>
